<svg xmlns="http://www.w3.org/2000/svg" width="172" height="172" viewBox="0 0 172 172"><g id="af735281-25dc-4782-b66f-3ecccfee0d7c" data-name="Artwork"><path id="a67f0a06-a1cc-4d20-b0ac-6c502162f9a9" data-name="Border" d="M129.94,182H62.06C39.43,182,22,182,16,176s-6-23.43-6-46.06V62.07C10,39.43,10,22,16,16s23.43-6,46.06-6h67.88C152.57,10,170,10,176,16s6,23.43,6,46.07V130c0,22.61,0,40.06-6,46S152.57,182,129.94,182Z" transform="translate(-10 -10)" style="fill:#fff"/><g id="b0621bfe-5d5a-4c28-8e24-65f3b3bf6197" data-name="Artwork"><polygon id="b56178c5-989f-4cc2-a7b0-e8ff8e8ae42a" data-name="Right" points="152 38.02 152 162 166 134 166 24.02 41.98 24.02 41.98 38.02 132.25 38.02 133.98 38.02 148 38.02 150 38.02 152 38.02"/><polygon id="b5590000-c422-45fa-afd2-2a4842763388" data-name="Bottom" points="133.98 42.03 133.98 132.25 133.98 134 133.98 148 134 148 134 152 10 152 37.97 166 148 166 148 42.03 133.98 42.03"/><polygon id="fec552e5-1c4d-4936-ae3c-e07b94adb0e0" data-name="Left" points="39.75 134 39.75 134 22.01 134 22.01 134 20.01 134 20.01 10 6 38 6 148 129.97 148 129.97 134 39.75 134"/><polygon id="ebce2adb-49f1-4663-8ce0-582296a0dead" data-name="Top" points="134 6 134 6 24.01 6 24.01 130 38 130 38 39.76 37.97 39.76 37.97 22.02 38 22.02 38 20.02 162 20.02 134 6"/></g></g><g id="a82ee6c8-53b0-486b-8f63-780d5d2b57ea" data-name="Text"><path d="M90,100.85a1.89,1.89,0,0,1-1.37-.5A1.82,1.82,0,0,1,88.12,99a1.88,1.88,0,1,1,3.76,0,1.82,1.82,0,0,1-.51,1.36A1.89,1.89,0,0,1,90,100.85Z" transform="translate(-10 -10)"/><path d="M102.06,100.85a5.42,5.42,0,0,1-2.45-.53A3.88,3.88,0,0,1,98,98.82a4.36,4.36,0,0,1-.58-2.29V93.77A4.36,4.36,0,0,1,98,91.48,3.88,3.88,0,0,1,99.61,90a5.42,5.42,0,0,1,2.45-.53,4.92,4.92,0,0,1,3.32,1.07,3.8,3.8,0,0,1,1.3,2.91h-2.44a1.78,1.78,0,0,0-.65-1.33,2.39,2.39,0,0,0-1.53-.47,2.19,2.19,0,0,0-1.58.55,2.05,2.05,0,0,0-.58,1.57v2.78a2.08,2.08,0,0,0,.58,1.58,2.19,2.19,0,0,0,1.58.56,2.4,2.4,0,0,0,1.54-.47,1.77,1.77,0,0,0,.64-1.33h2.44a3.8,3.8,0,0,1-1.3,2.91A4.92,4.92,0,0,1,102.06,100.85Z" transform="translate(-10 -10)"/></g></svg>